# xmcd CD database file
#
# Track frame offsets:
#	150
#	19191
#	40159
#	72041
#	91195
#	110732
#	129683
#	143552
#	162139
#	180305
#	195725
#	215703
#	229224
#
# Disc length: 3300 seconds
#
# Revision: 0
# Processed by: cddbd v1.4PL0 Copyright (c) Steve Scherf et al.
# Submitted via: CDex 1.50beta10
#
DISCID=b10ce20d
DTITLE=Kay Kay And The Rays - Kay Kay And The Rays Featuring Abner Burnett
DYEAR=2000
DGENRE=Blues
TTITLE0=Crossfire
TTITLE1=Garden Of Eden
TTITLE2=Waiting For Dreams
TTITLE3=Standing On Shakey Ground
TTITLE4=Mystic Pontchartrain
TTITLE5=I Can't Stand The Rain
TTITLE6=Evil
TTITLE7=Stealing Love In The First Degree
TTITLE8=There'll Come A Time
TTITLE9=Never Gonna Hurt Dianne
TTITLE10=Slow Drag
TTITLE11=Love Is A Beautiful Thing
TTITLE12=Juke Joint Kings And Queens
EXTD=YEAR: 2000
EXTT0=
EXTT1=
EXTT2=
EXTT3=
EXTT4=
EXTT5=
EXTT6=
EXTT7=
EXTT8=
EXTT9=
EXTT10=
EXTT11=
EXTT12=
PLAYORDER=
